name rise43.5482peak65.4966fall89.1036.mot
datacolumns 19
datarows 12
range 5.40997400000000 5.42830800000000
endheader
time	ground_force1_vx	ground_force1_vy	ground_force1_vz	ground_force1_px	ground_force1_py	ground_force1_pz	ground_force2_vx	ground_force2_vy	ground_force2_vz	ground_force2_px	ground_force2_py	ground_force2_pz	ground_torque1_x	ground_torque1_y	ground_torque1_z	ground_torque2_x	ground_torque2_y	ground_torque2_z	
5.40997400000000	71.51885600000000	829.64103599999999	47.95733300000000	0.28635900000000	0.00000000000000	0.09996400000000	0.00000000000000	0.00000000000000	0.00000000000000	0.00000000000000	0.00000000000000	0.00000000000000	0.00000000000000	13.22773100000000	0.00000000000000	0.00000000000000	0.00000000000000	0.00000000000000	
5.41164200000000	70.83267800000000	830.91901600000006	48.06174000000000	0.28537700000000	0.00000000000000	0.09996300000000	0.00000000000000	0.00000000000000	0.00000000000000	0.00000000000000	0.00000000000000	0.00000000000000	0.00000000000000	13.32696700000000	0.00000000000000	0.00000000000000	0.00000000000000	0.00000000000000	
5.41331300000000	70.13990099999999	831.98503300000004	48.15832000000000	0.28439200000000	0.00000000000000	0.09996300000000	0.00000000000000	0.00000000000000	0.00000000000000	0.00000000000000	0.00000000000000	0.00000000000000	0.00000000000000	13.42338100000000	0.00000000000000	0.00000000000000	0.00000000000000	0.00000000000000	
5.41497300000000	69.44149400000001	832.84240499999999	48.24680300000000	0.28340300000000	0.00000000000000	0.09996600000000	0.00000000000000	0.00000000000000	0.00000000000000	0.00000000000000	0.00000000000000	0.00000000000000	0.00000000000000	13.51672500000000	0.00000000000000	0.00000000000000	0.00000000000000	0.00000000000000	
5.41664300000000	68.73838700000000	833.49473399999999	48.32690200000000	0.28241100000000	0.00000000000000	0.09997000000000	0.00000000000000	0.00000000000000	0.00000000000000	0.00000000000000	0.00000000000000	0.00000000000000	0.00000000000000	13.60675000000000	0.00000000000000	0.00000000000000	0.00000000000000	0.00000000000000	
5.41831200000000	68.03147300000001	833.94590000000005	48.39832400000000	0.28141400000000	0.00000000000000	0.09997500000000	0.00000000000000	0.00000000000000	0.00000000000000	0.00000000000000	0.00000000000000	0.00000000000000	0.00000000000000	13.69320800000000	0.00000000000000	0.00000000000000	0.00000000000000	0.00000000000000	
5.41997400000000	67.32160700000000	834.20005000000003	48.46077200000000	0.28041400000000	0.00000000000000	0.09998300000000	0.00000000000000	0.00000000000000	0.00000000000000	0.00000000000000	0.00000000000000	0.00000000000000	0.00000000000000	13.77585100000000	0.00000000000000	0.00000000000000	0.00000000000000	0.00000000000000	
5.42163800000000	66.60960799999999	834.26159199999995	48.51394500000000	0.27940900000000	0.00000000000000	0.09999200000000	0.00000000000000	0.00000000000000	0.00000000000000	0.00000000000000	0.00000000000000	0.00000000000000	0.00000000000000	13.85443900000000	0.00000000000000	0.00000000000000	0.00000000000000	0.00000000000000	
5.42330600000000	65.89626000000000	834.13517600000000	48.55755200000000	0.27839900000000	0.00000000000000	0.10000200000000	0.00000000000000	0.00000000000000	0.00000000000000	0.00000000000000	0.00000000000000	0.00000000000000	0.00000000000000	13.92874000000000	0.00000000000000	0.00000000000000	0.00000000000000	0.00000000000000	
5.42497100000000	65.18231400000001	833.82568900000001	48.59130600000000	0.27738500000000	0.00000000000000	0.10001400000000	0.00000000000000	0.00000000000000	0.00000000000000	0.00000000000000	0.00000000000000	0.00000000000000	0.00000000000000	13.99853100000000	0.00000000000000	0.00000000000000	0.00000000000000	0.00000000000000	
5.42664100000000	64.46848500000000	833.33824300000003	48.61493700000000	0.27636600000000	0.00000000000000	0.10002800000000	0.00000000000000	0.00000000000000	0.00000000000000	0.00000000000000	0.00000000000000	0.00000000000000	0.00000000000000	14.06360000000000	0.00000000000000	0.00000000000000	0.00000000000000	0.00000000000000	
5.42830800000000	63.75546100000000	832.67815800000005	48.62819000000000	0.27534200000000	0.00000000000000	0.10004300000000	0.00000000000000	0.00000000000000	0.00000000000000	0.00000000000000	0.00000000000000	0.00000000000000	0.00000000000000	14.12375000000000	0.00000000000000	0.00000000000000	0.00000000000000	0.00000000000000	
